<svg width="65" height="38" viewBox="0 0 65 38" fill="none" xmlns="http://www.w3.org/2000/svg">
<path d="M2.82442 9.20467V16.5102H0V0H2.82442V6.92378H7.09935V0H9.97165V16.5102H7.09935V9.20467H2.82442Z" fill="white"/>
<path d="M11.1301 10.3022C11.1301 6.00763 12.6764 4.09894 15.2471 4.09894C17.8178 4.09894 19.3353 6.0458 19.3353 10.2354C19.3353 14.5299 17.813 16.5102 15.2471 16.5102C12.6812 16.5102 11.1301 14.5395 11.1301 10.3022ZM16.9274 11.1182V9.51008C16.9274 6.64704 16.4056 5.99809 15.2471 5.99809C14.0886 5.99809 13.5429 6.68044 13.5429 9.44328V11.0513C13.5429 13.9478 14.1077 14.6731 15.2471 14.6731C16.3864 14.6731 16.9274 13.9478 16.9274 11.1182Z" fill="white"/>
<path d="M23.8256 4.4377C24.2922 4.19138 24.8155 4.07128 25.3432 4.08936C27.5405 4.08936 28.7325 5.95034 28.7325 10.4453C28.7325 14.9403 27.5883 16.5245 25.1565 16.5245C24.3463 16.5299 23.5655 16.222 22.9783 15.6656V20.5184H20.5847V4.32318H22.1501L22.8682 5.72607L23.8256 4.4377ZM24.5724 14.9355C25.7644 14.9355 26.2814 14.1195 26.2814 11.5571V9.35258C26.2814 6.83788 25.7165 6.08872 24.6203 6.08872C24.0272 6.09988 23.4527 6.29688 22.9783 6.65178V14.3581C23.4358 14.713 23.9932 14.9166 24.5724 14.9403V14.9355Z" fill="white"/>
<path d="M32.0979 11.1182C32.0979 13.881 32.6915 14.5824 34.2138 14.5824C35.1279 14.535 36.0254 14.3199 36.8611 13.9478L37.1819 15.6943C36.2454 16.2432 35.1757 16.5255 34.0894 16.5102C31.1836 16.5102 29.7283 14.6015 29.7283 10.307C29.7283 6.01242 31.2745 4.10373 33.7926 4.10373C36.4542 4.10373 37.5218 6.07445 37.5218 9.49101V11.0323H32.0979V11.1182ZM35.2814 9.41944V8.69413C35.2814 6.56594 34.8457 5.88836 33.8021 5.88836C32.6436 5.88836 32.1219 6.61366 32.0979 9.41944H35.2814Z" fill="white"/>
<path d="M56.1582 6.52294C54.6563 6.15734 53.1301 5.89901 51.5912 5.74992V3.24954L53.7694 3.51675C55.5141 3.72058 57.2164 4.19388 58.8151 4.91964L62.6448 2.59581V6.04577L60.615 7.29597L62.2331 8.11193C62.7534 8.93956 63.0135 9.9034 62.9799 10.8795C62.9799 14.1816 61.1273 16.262 57.3071 16.262C53.9561 16.262 52.4721 14.778 51.3088 12.8407C49.3939 14.0623 47.9578 14.3868 46.3828 14.3868C43.4291 14.3868 41.9355 12.3969 41.9355 9.95382C41.9355 7.75405 43.2472 5.8215 46.3254 5.8215C47.5647 5.78474 48.7814 6.15714 49.7865 6.88082L51.2226 9.40984L56.1582 6.52294ZM52.9939 11.7718C53.8604 12.6069 54.9087 12.9934 56.4885 12.9934H57.5608C59.7725 12.9934 60.5767 12.0391 60.5767 10.5217C60.5845 10.0403 60.484 9.56332 60.2827 9.12571C60.0814 8.68809 59.7844 8.30094 59.4135 7.99264L52.9939 11.7718ZM46.5743 8.39823C44.8174 8.39823 44.3961 8.9947 44.3961 9.85838C44.3961 10.7221 44.8749 11.4044 46.4259 11.4044C47.7089 11.4044 48.4269 11.1658 50.3083 10.0636C49.3078 8.84678 48.3982 8.39823 46.5743 8.39823Z" fill="#F44336"/>
<path d="M0 20.5184H4.49514C7.827 20.5184 9.57431 22.3412 9.57431 26.0107C9.57431 29.6801 7.85094 31.5316 4.5478 31.5316H2.81963V37H0V20.5184ZM4.39461 29.4559C5.99352 29.4559 6.58234 28.7735 6.58234 26.6453V25.481C6.58234 23.4053 5.99352 22.7945 4.34674 22.7945H2.81963V29.4749L4.39461 29.4559Z" fill="white"/>
<path d="M14.9791 28.1246C14.9791 26.9698 14.7253 26.4115 13.5668 26.4115C12.5599 26.4635 11.5699 26.6912 10.6419 27.0843L10.2493 25.2329C11.3514 24.6553 12.5756 24.3478 13.8206 24.3358C16.2572 24.3358 17.3487 25.4715 17.3487 28.869V34.7143C17.3487 35.2201 17.5306 35.3633 17.904 35.3633H18.3444L18.4162 36.518C18.0019 36.8278 17.498 36.9952 16.9801 36.9952C16.6183 36.9926 16.2587 36.938 15.9125 36.833L15.1945 35.5828L14.4525 36.7185C13.9679 36.9216 13.4462 37.0223 12.9206 37.0143C11.2068 37.0143 9.83765 36.1172 9.83765 33.5262C9.83765 30.9351 11.0105 29.9044 13.6578 29.5847L14.9791 29.4225V28.1246ZM14.9791 30.854L13.7966 31.0162C12.5711 31.1785 12.1068 31.5936 12.1068 32.9583V33.7409C12.1068 34.9434 12.6142 35.3394 13.519 35.3394C13.7919 35.354 14.0647 35.3076 14.3173 35.2036C14.5699 35.0996 14.796 34.9406 14.9791 34.7382V30.854Z" fill="white"/>
<path d="M22.9784 24.9562C23.4008 24.734 23.87 24.6146 24.3476 24.6078C24.7704 24.5899 25.1893 24.6943 25.5539 24.9085L25.1805 27.0844C24.7767 26.9631 24.3576 26.9005 23.9359 26.8983C23.2541 26.8964 22.5874 27.0974 22.021 27.4757V37.0191H19.6753V24.813H21.1832L21.9492 26.4306L22.9784 24.9562Z" fill="white"/>
<path d="M27.2868 33.6979V26.297H26.1475V24.5648H27.4448L27.4974 20.5184H29.6804V24.5839H31.7915V26.3161H29.6804V34.2992C29.6804 35.0149 29.9341 35.2535 30.724 35.2535H31.9303L32.0452 36.5276C31.3965 36.847 30.6816 37.0105 29.958 37.0047C28.1868 37 27.2868 35.9836 27.2868 33.6979Z" fill="white"/>
<path d="M36.8275 24.9801C37.3552 24.7229 37.9348 24.5891 38.5221 24.5888C40.1689 24.5888 41.2365 25.629 41.2365 28.0769V37.0001H38.8716V27.7524C38.8716 26.8983 38.4312 26.5977 37.6652 26.5977C37.0369 26.6099 36.4253 26.802 35.9036 27.1512V37.0001H33.5339V24.8131H35.0898L35.8318 26.2684L36.8275 24.9801Z" fill="white"/>
<path d="M44.918 31.4934C44.918 34.3135 45.5212 35.034 47.0722 35.034C48.0091 34.988 48.9293 34.7696 49.7865 34.3899L50.112 36.1697C49.1434 36.7355 48.0366 37.0228 46.9142 37C43.9462 37 42.4622 35.0627 42.4622 30.6679C42.4622 26.2731 44.0419 24.3358 46.6318 24.3358C49.3461 24.3358 50.4615 26.3495 50.4615 29.8376V31.4123H44.918V31.4934ZM48.1637 29.7613V29.0264C48.1637 26.8505 47.7232 26.1634 46.6557 26.1634C45.4733 26.1634 44.9419 26.903 44.918 29.7708L48.1637 29.7613Z" fill="white"/>
<path d="M55.0522 24.9562C55.4746 24.734 55.9437 24.6146 56.4213 24.6078C56.8441 24.5899 57.2631 24.6943 57.6277 24.9085L57.2543 27.0844C56.849 26.9625 56.4281 26.8999 56.0048 26.8983C55.3233 26.8978 54.6569 27.0987 54.09 27.4757V37.0191H51.7251V24.813H53.2331L53.999 26.4306L55.0522 24.9562Z" fill="white"/>
<path d="M58.322 36.3082L58.6236 34.5999C59.3907 34.9445 60.2192 35.1327 61.0603 35.1534C62.1949 35.1534 62.731 34.7621 62.731 33.5119C62.731 32.2617 62.3815 32.1472 60.6199 31.5221C59.1837 31.0163 58.2742 30.1574 58.2742 27.9386C58.2742 25.3714 59.6672 24.312 61.8262 24.312C62.7775 24.2919 63.7182 24.5136 64.5597 24.9562L64.1911 26.7599C63.4936 26.4694 62.745 26.3202 61.989 26.3209C60.9215 26.3209 60.4571 26.6454 60.4571 27.7763C60.4571 28.9072 60.9358 29.0742 62.4055 29.6039C64.1432 30.2051 65.0001 31.0831 65.0001 33.3258C65.0001 35.6831 63.7746 37.0001 61.314 37.0001C60.2722 37.0444 59.2379 36.8052 58.322 36.3082Z" fill="white"/>
</svg>
