<svg width="131" height="24" viewBox="0 0 131 24" fill="none" xmlns="http://www.w3.org/2000/svg">
<path d="M66 2H70.4951C73.827 2 75.5743 4.10323 75.5743 8.33722C75.5743 12.5712 73.8509 14.7075 70.5478 14.7075H68.8196V21.0172H66V2ZM70.3946 12.3124C71.9935 12.3124 72.5823 11.5251 72.5823 9.0695V7.72608C72.5823 5.33103 71.9935 4.62629 70.3467 4.62629H68.8196V12.3345L70.3946 12.3124Z" fill="white"/>
<path d="M80.9791 10.7764C80.9791 9.44395 80.7253 8.79977 79.5668 8.79977C78.5599 8.85972 77.5699 9.12248 76.6419 9.57609L76.2493 7.43982C77.3514 6.77341 78.5756 6.41857 79.8206 6.40472C82.2572 6.40472 83.3487 7.71511 83.3487 11.6353V18.3799C83.3487 18.9636 83.5306 19.1287 83.904 19.1287H84.3444L84.4162 20.4611C84.0019 20.8185 83.498 21.0117 82.9801 21.0117C82.6183 21.0088 82.2587 20.9457 81.9125 20.8245L81.1945 19.382L80.4525 20.6924C79.9679 20.9268 79.4462 21.043 78.9206 21.0337C77.2068 21.0337 75.8376 19.9987 75.8376 17.009C75.8376 14.0193 77.0105 12.83 79.6578 12.4612L80.9791 12.274V10.7764ZM80.9791 13.9257L79.7966 14.1129C78.5711 14.3001 78.1068 14.7791 78.1068 16.3538V17.2567C78.1068 18.6442 78.6142 19.1012 79.519 19.1012C79.7919 19.118 80.0647 19.0645 80.3173 18.9445C80.5699 18.8244 80.796 18.641 80.9791 18.4075V13.9257Z" fill="white"/>
<path d="M88.9784 7.12052C89.4008 6.86413 89.87 6.7264 90.3476 6.71859C90.7704 6.69789 91.1893 6.81836 91.5539 7.06546L91.1805 9.57612C90.7767 9.43623 90.3576 9.36391 89.9359 9.36139C89.2541 9.35918 88.5874 9.59116 88.021 10.0276V21.0393H85.6753V6.95534H87.1832L87.9492 8.82182L88.9784 7.12052Z" fill="white"/>
<path d="M93.2868 17.2071V8.66757H92.1475V6.66895H93.4448L93.4974 2H95.6804V6.69098H97.7915V8.6896H95.6804V17.9009C95.6804 18.7267 95.9341 19.002 96.724 19.002H97.9303L98.0452 20.4721C97.3965 20.8407 96.6816 21.0293 95.958 21.0227C94.1868 21.0172 93.2868 19.8444 93.2868 17.2071Z" fill="white"/>
<path d="M102.827 7.14807C103.355 6.85137 103.935 6.69696 104.522 6.69659C106.169 6.69659 107.236 7.89687 107.236 10.7214V21.0173H104.872V10.347C104.872 9.36142 104.431 9.01456 103.665 9.01456C103.037 9.0286 102.425 9.25031 101.904 9.65323V21.0173H99.5339V6.95537H101.09L101.832 8.63465L102.827 7.14807Z" fill="white"/>
<path d="M110.918 14.6635C110.918 17.9174 111.521 18.7488 113.072 18.7488C114.009 18.6957 114.929 18.4437 115.787 18.0055L116.112 20.0592C115.143 20.712 114.037 21.0436 112.914 21.0172C109.946 21.0172 108.462 18.7819 108.462 13.711C108.462 8.64009 110.042 6.40472 112.632 6.40472C115.346 6.40472 116.461 8.72819 116.461 12.753V14.5699H110.918V14.6635ZM114.164 12.6649V11.817C114.164 9.3063 113.723 8.51346 112.656 8.51346C111.473 8.51346 110.942 9.36687 110.918 12.6759L114.164 12.6649Z" fill="white"/>
<path d="M121.052 7.12052C121.475 6.86413 121.944 6.7264 122.421 6.71859C122.844 6.69789 123.263 6.81836 123.628 7.06546L123.254 9.57612C122.849 9.43556 122.428 9.36323 122.005 9.36139C121.323 9.36085 120.657 9.59268 120.09 10.0276V21.0393H117.725V6.95534H119.233L119.999 8.82182L121.052 7.12052Z" fill="white"/>
<path d="M124.322 20.2189L124.623 18.2478C125.39 18.6455 126.219 18.8626 127.06 18.8865C128.195 18.8865 128.731 18.435 128.731 16.9925C128.731 15.55 128.381 15.4178 126.62 14.6966C125.183 14.113 124.274 13.1219 124.274 10.5617C124.274 7.59955 125.667 6.37725 127.826 6.37725C128.777 6.35396 129.718 6.60977 130.559 7.12054L130.191 9.20175C129.493 8.86653 128.745 8.69433 127.989 8.69521C126.921 8.69521 126.457 9.06961 126.457 10.3745C126.457 11.6794 126.936 11.8721 128.405 12.4832C130.143 13.177 131 14.19 131 16.7778C131 19.4977 129.774 21.0173 127.314 21.0173C126.272 21.0684 125.238 20.7924 124.322 20.2189Z" fill="white"/>
<path d="M55.2226 7.52642C53.7207 7.10457 52.1945 6.8065 50.6557 6.63448V3.74942L52.8338 4.05774C54.5786 4.29293 56.2808 4.83904 57.8795 5.67646L61.7092 2.99512V6.97584L59.6795 8.41837L61.2975 9.35987C61.8179 10.3148 62.0779 11.4269 62.0443 12.5533C62.0443 16.3633 60.1917 18.7638 56.3716 18.7638C53.0205 18.7638 51.5365 17.0515 50.3733 14.8162C48.4584 16.2257 47.0222 16.6001 45.4473 16.6001C42.4936 16.6001 41 14.3041 41 11.4851C41 8.94693 42.3117 6.71707 45.3898 6.71707C46.6291 6.67465 47.8459 7.10435 48.8509 7.93936L50.2871 10.8575L55.2226 7.52642ZM52.0583 13.5829C52.9248 14.5464 53.9732 14.9923 55.553 14.9923H56.6253C58.8369 14.9923 59.6412 13.8912 59.6412 12.1403C59.6489 11.5849 59.5484 11.0346 59.3471 10.5296C59.1459 10.0247 58.8489 9.57796 58.4779 9.22222L52.0583 13.5829ZM45.6388 9.69022C43.8819 9.69022 43.4606 10.3785 43.4606 11.375C43.4606 12.3716 43.9393 13.1589 45.4904 13.1589C46.7733 13.1589 47.4914 12.8836 49.3727 11.6118C48.3722 10.2078 47.4627 9.69022 45.6388 9.69022Z" fill="#F44336"/>
<path d="M2.82442 10.6208V19.0502H0V0H2.82442V7.98898H7.09935V0H9.97165V19.0502H7.09935V10.6208H2.82442Z" fill="white"/>
<path d="M11.1301 11.8871C11.1301 6.93183 12.6764 4.72949 15.2471 4.72949C17.8178 4.72949 19.3353 6.97588 19.3353 11.81C19.3353 16.7653 17.813 19.0502 15.2471 19.0502C12.6812 19.0502 11.1301 16.7763 11.1301 11.8871ZM16.9274 12.8286V10.9731C16.9274 7.66961 16.4056 6.92082 15.2471 6.92082C14.0886 6.92082 13.5429 7.70815 13.5429 10.896V12.7515C13.5429 16.0935 14.1077 16.9304 15.2471 16.9304C16.3864 16.9304 16.9274 16.0935 16.9274 12.8286Z" fill="white"/>
<path d="M23.8256 5.12041C24.2922 4.8362 24.8155 4.69762 25.3432 4.71848C27.5405 4.71848 28.7325 6.86576 28.7325 12.0523C28.7325 17.2388 27.5883 19.0667 25.1565 19.0667C24.3463 19.073 23.5655 18.7177 22.9783 18.0757V23.6751H20.5847V4.98827H22.1501L22.8682 6.60699L23.8256 5.12041ZM24.5724 17.2333C25.7644 17.2333 26.2814 16.2918 26.2814 13.3351V10.7914C26.2814 7.88985 25.7165 7.02543 24.6203 7.02543C24.0272 7.03831 23.4527 7.26562 22.9783 7.67512V16.5671C23.4358 16.9766 23.9932 17.2114 24.5724 17.2388V17.2333Z" fill="white"/>
<path d="M32.0979 12.8287C32.0979 16.0166 32.6915 16.8259 34.2138 16.8259C35.1279 16.7712 36.0254 16.523 36.8611 16.0937L37.1819 18.1088C36.2454 18.7422 35.1757 19.0679 34.0894 19.0503C31.1836 19.0503 29.7283 16.848 29.7283 11.8927C29.7283 6.93744 31.2745 4.73511 33.7926 4.73511C36.4542 4.73511 37.5218 7.00902 37.5218 10.9512V12.7296H32.0979V12.8287ZM35.2814 10.8686V10.0317C35.2814 7.57612 34.8457 6.79429 33.8021 6.79429C32.6436 6.79429 32.1219 7.63118 32.0979 10.8686H35.2814Z" fill="white"/>
</svg>
